<svg width="65" height="65" viewBox="0 0 65 65" fill="none" xmlns="http://www.w3.org/2000/svg">
<g clip-path="url(#clip0_240_2)">
<path d="M45.6043 8.96143H18.167L5.09692 30.3302L18.2309 54.6356L25.2174 59.1864L31.9722 63.7344L45.5377 54.6383L45.5404 54.6356L59.0846 30.3302L45.6043 8.96143Z" fill="white" stroke="black" stroke-width="2" stroke-linejoin="round"/>
<path d="M42.3361 19.3989H21.6056L11.335 27.628L21.6056 54.0329L26.7037 57.3567L31.9722 60.7868L42.2562 53.992L42.2855 53.9129L52.6068 27.628L42.3361 19.3989Z" fill="white" stroke="black" stroke-width="2" stroke-linejoin="round"/>
<path d="M54.7058 7.63889L48.0602 7.95519C47.9752 7.95913 47.8926 7.98594 47.8209 8.0329C47.7492 8.07987 47.6909 8.14534 47.6517 8.22272C47.6126 8.30011 47.594 8.38669 47.5979 8.47375C47.6018 8.5608 47.6281 8.64527 47.674 8.71865L51.2645 14.4446C51.3105 14.518 51.3745 14.5777 51.4502 14.6176C51.5259 14.6576 51.6105 14.6765 51.6955 14.6723C51.7806 14.6682 51.8631 14.6412 51.9347 14.594C52.0063 14.5469 52.0645 14.4812 52.1035 14.4037L55.1586 8.356C55.1953 8.2788 55.2119 8.19321 55.2069 8.1075C55.2018 8.0218 55.1752 7.93889 55.1297 7.86678C55.0842 7.79467 55.0212 7.73581 54.947 7.69589C54.8727 7.65597 54.7896 7.63634 54.7058 7.63889Z" fill="black"/>
<path d="M37.5256 32.836L43.5852 30.7092C43.6768 30.6768 43.7569 30.6176 43.8158 30.5388C43.8746 30.4601 43.9095 30.3653 43.916 30.2664C43.9225 30.1675 43.9004 30.0688 43.8525 29.9827C43.8046 29.8966 43.7329 29.8268 43.6465 29.7821L39.8376 27.8326C39.7247 27.7744 39.5942 27.763 39.4733 27.8005C39.3523 27.8381 39.2501 27.9218 39.1877 28.0343L36.937 32.1107C36.8878 32.1997 36.8663 32.302 36.8753 32.4038C36.8842 32.5057 36.9232 32.6024 36.987 32.6811C37.0509 32.7597 37.1366 32.8167 37.2328 32.8443C37.329 32.872 37.4311 32.8691 37.5256 32.836Z" fill="black" stroke="black" stroke-width="0.8" stroke-miterlimit="10"/>
<path d="M26.0645 32.7241L20.0049 30.5973C19.9127 30.5651 19.8319 30.5057 19.7728 30.4265C19.7136 30.3473 19.6787 30.2519 19.6724 30.1525C19.6661 30.053 19.6888 29.9538 19.7375 29.8675C19.7863 29.7812 19.8589 29.7116 19.9463 29.6675L23.7552 27.718C23.868 27.6602 23.9983 27.6493 24.1188 27.6874C24.2394 27.7254 24.341 27.8097 24.4024 27.9225L26.6531 32.0125C26.6979 32.1012 26.7159 32.2015 26.7049 32.3008C26.6939 32.4 26.6544 32.4937 26.5913 32.5699C26.5283 32.6461 26.4446 32.7014 26.3508 32.7289C26.257 32.7563 26.1573 32.7547 26.0645 32.7241Z" fill="black" stroke="black" stroke-width="0.8" stroke-miterlimit="10"/>
<path d="M35.9437 41.5039C36.0355 41.5039 36.1236 41.5412 36.1885 41.6077C36.2535 41.6742 36.2899 41.7644 36.2899 41.8584V42.8045H36.2633C34.3668 42.8045 32.8326 43.8597 32.8326 45.1631C32.8326 45.2449 32.8326 45.3321 32.8326 45.4357C32.8352 45.4836 32.8282 45.5316 32.8121 45.5766C32.796 45.6217 32.7711 45.6629 32.739 45.6978C32.7068 45.7328 32.6681 45.7606 32.6252 45.7798C32.5822 45.799 32.5359 45.809 32.489 45.8093H31.0347C30.9873 45.809 30.9404 45.7988 30.8969 45.7794C30.8535 45.7599 30.8143 45.7316 30.7819 45.6961C30.7495 45.6606 30.7245 45.6187 30.7084 45.573C30.6924 45.5273 30.6856 45.4788 30.6885 45.4303C30.6885 45.343 30.6885 45.2558 30.6885 45.174C30.6885 43.9524 29.3354 42.9463 27.6014 42.8263C27.5147 42.8201 27.4337 42.7802 27.3748 42.7148C27.3159 42.6495 27.2835 42.5635 27.2844 42.4746V41.8611C27.2844 41.7671 27.3209 41.6769 27.3859 41.6105C27.4508 41.544 27.5389 41.5066 27.6307 41.5066L35.9437 41.5039Z" fill="black"/>
<path d="M32.1267 28.2442L41.308 20.1569C41.3728 20.1001 41.4193 20.0244 41.4411 19.9399C41.463 19.8554 41.4592 19.7661 41.4303 19.6839C41.4014 19.6016 41.3487 19.5303 41.2793 19.4794C41.2099 19.4285 41.127 19.4004 41.0416 19.3989H22.6684C22.583 19.4004 22.5001 19.4285 22.4307 19.4794C22.3613 19.5303 22.3086 19.6016 22.2797 19.6839C22.2508 19.7661 22.247 19.8554 22.2689 19.9399C22.2907 20.0244 22.3372 20.1001 22.402 20.1569L31.5833 28.2442C31.6595 28.3094 31.7557 28.3452 31.855 28.3452C31.9543 28.3452 32.0505 28.3094 32.1267 28.2442Z" fill="black"/>
<path d="M26.7036 57.354H37.2486L31.9721 60.7869L26.7036 57.354Z" fill="black"/>
<path d="M52.6068 27.628L42.3361 19.399H21.6056L11.335 27.628L18.9288 13.8721H45.1382L52.6068 27.628Z" fill="white" stroke="black" stroke-width="2" stroke-linejoin="round"/>
<path d="M42.3361 19.3989H21.6056L11.335 27.628L21.6536 53.9102L26.9328 57.3485L31.9722 60.7868L42.2855 53.9129L42.2882 53.9102L52.6068 27.628L42.3361 19.3989Z" stroke="black" stroke-width="2" stroke-linejoin="round"/>
<path d="M45.6043 8.9585L45.1355 13.8719" stroke="black" stroke-width="2" stroke-linejoin="round"/>
<path d="M45.5403 54.6352L42.2854 53.9126" stroke="black" stroke-width="2" stroke-linejoin="round"/>
<path d="M18.231 54.6354L21.6536 53.9102" stroke="black" stroke-width="2" stroke-linejoin="round"/>
<path d="M31.9722 60.7866V63.8568" stroke="black" stroke-width="2" stroke-linejoin="round"/>
<path d="M18.167 8.9585L18.9288 13.8719" stroke="black" stroke-width="2" stroke-linejoin="round"/>
<path d="M5.09692 30.33L11.335 27.6279" stroke="black" stroke-width="2" stroke-linejoin="round"/>
<path d="M59.0847 30.33L52.6069 27.6279" stroke="black" stroke-width="2" stroke-linejoin="round"/>
<path d="M38.8629 45.681C39.3925 45.681 39.8218 45.2415 39.8218 44.6994C39.8218 44.1573 39.3925 43.7178 38.8629 43.7178C38.3334 43.7178 37.9041 44.1573 37.9041 44.6994C37.9041 45.2415 38.3334 45.681 38.8629 45.681Z" fill="black"/>
<path d="M39.1027 42.7337C39.6323 42.7337 40.0616 42.2942 40.0616 41.7521C40.0616 41.21 39.6323 40.7705 39.1027 40.7705C38.5731 40.7705 38.1438 41.21 38.1438 41.7521C38.1438 42.2942 38.5731 42.7337 39.1027 42.7337Z" fill="black"/>
<path d="M41.2628 44.2088C41.7924 44.2088 42.2217 43.7693 42.2217 43.2272C42.2217 42.6851 41.7924 42.2456 41.2628 42.2456C40.7333 42.2456 40.304 42.6851 40.304 43.2272C40.304 43.7693 40.7333 44.2088 41.2628 44.2088Z" fill="black"/>
<path d="M24.5463 45.681C25.0759 45.681 25.5052 45.2415 25.5052 44.6994C25.5052 44.1573 25.0759 43.7178 24.5463 43.7178C24.0167 43.7178 23.5874 44.1573 23.5874 44.6994C23.5874 45.2415 24.0167 45.681 24.5463 45.681Z" fill="black"/>
<path d="M24.3065 42.7337C24.8361 42.7337 25.2654 42.2942 25.2654 41.7521C25.2654 41.21 24.8361 40.7705 24.3065 40.7705C23.777 40.7705 23.3477 41.21 23.3477 41.7521C23.3477 42.2942 23.777 42.7337 24.3065 42.7337Z" fill="black"/>
<path d="M22.1491 44.2088C22.6786 44.2088 23.1079 43.7693 23.1079 43.2272C23.1079 42.6851 22.6786 42.2456 22.1491 42.2456C21.6195 42.2456 21.1902 42.6851 21.1902 43.2272C21.1902 43.7693 21.6195 44.2088 22.1491 44.2088Z" fill="black"/>
<path d="M21.9413 0.664079L18.6145 6.56183C18.5719 6.63735 18.5495 6.72302 18.5496 6.81022C18.5496 6.89742 18.5721 6.98306 18.6148 7.05853C18.6574 7.134 18.7188 7.19663 18.7926 7.24011C18.8664 7.28359 18.9502 7.30639 19.0354 7.30621H25.6942C25.7794 7.30639 25.8632 7.28359 25.937 7.24011C26.0108 7.19663 26.0722 7.134 26.1148 7.05853C26.1575 6.98306 26.18 6.89742 26.18 6.81022C26.1801 6.72302 26.1577 6.63735 26.1151 6.56183L22.7803 0.664079C22.7377 0.588789 22.6765 0.526283 22.6029 0.48283C22.5293 0.439377 22.4458 0.416504 22.3608 0.416504C22.2758 0.416504 22.1923 0.439377 22.1187 0.48283C22.0451 0.526283 21.9839 0.588789 21.9413 0.664079Z" fill="black"/>
<path d="M59.2578 14.7144L52.6149 15.028C52.5294 15.0317 52.4464 15.0584 52.3743 15.1055C52.3022 15.1526 52.2436 15.2185 52.2044 15.2963C52.1651 15.3741 52.1467 15.4611 52.151 15.5486C52.1553 15.636 52.1821 15.7208 52.2287 15.7942L55.8165 21.5202C55.8622 21.5937 55.9261 21.6535 56.0016 21.6937C56.0772 21.7339 56.1617 21.753 56.2468 21.7491C56.3318 21.7453 56.4143 21.7186 56.4861 21.6717C56.5579 21.6248 56.6163 21.5593 56.6555 21.482L59.7106 15.4316C59.749 15.3545 59.7669 15.2685 59.7626 15.1821C59.7582 15.0958 59.7318 15.0121 59.686 14.9395C59.6401 14.8669 59.5764 14.8078 59.5013 14.7683C59.4261 14.7289 59.3422 14.7103 59.2578 14.7144Z" fill="black"/>
<path d="M63.5781 22.0819L56.9325 22.3982C56.8475 22.4022 56.765 22.429 56.6932 22.4759C56.6215 22.5229 56.5632 22.5884 56.524 22.6657C56.4849 22.7431 56.4663 22.8297 56.4702 22.9168C56.4742 23.0038 56.5004 23.0883 56.5463 23.1617L60.1368 28.8876C60.1828 28.961 60.2468 29.0207 60.3225 29.0606C60.3982 29.1006 60.4828 29.1195 60.5679 29.1153C60.6529 29.1112 60.7354 29.0842 60.807 29.037C60.8786 28.9899 60.9369 28.9242 60.9758 28.8467L64.0309 22.799C64.0684 22.7219 64.0857 22.6361 64.081 22.5501C64.0763 22.4641 64.0498 22.3808 64.0041 22.3084C63.9584 22.236 63.8951 22.1771 63.8204 22.1374C63.7457 22.0977 63.6622 22.0786 63.5781 22.0819Z" fill="black"/>
<path d="M9.46527 7.63866L16.1082 7.95495C16.1932 7.9589 16.2758 7.9857 16.3475 8.03267C16.4192 8.07963 16.4776 8.1451 16.5167 8.22249C16.5558 8.29988 16.5744 8.38646 16.5705 8.47351C16.5666 8.56057 16.5403 8.64504 16.4944 8.71841L12.9066 14.4444C12.8611 14.5175 12.7977 14.5771 12.7227 14.6173C12.6478 14.6575 12.5638 14.6769 12.4792 14.6736C12.3947 14.6703 12.3124 14.6444 12.2406 14.5984C12.1689 14.5525 12.1101 14.4881 12.0702 14.4117L9.0098 8.36395C8.97106 8.28624 8.95291 8.19948 8.95715 8.11234C8.96139 8.0252 8.98787 7.94073 9.03396 7.86734C9.08005 7.79395 9.14413 7.73421 9.21981 7.69408C9.29549 7.65396 9.38012 7.63485 9.46527 7.63866Z" fill="black"/>
<path d="M4.91045 14.7144L11.5693 15.0279C11.6545 15.0324 11.7369 15.0596 11.8085 15.1069C11.8802 15.1542 11.9384 15.2199 11.9775 15.2974C12.0166 15.375 12.0351 15.4616 12.0313 15.5488C12.0274 15.6359 12.0013 15.7205 11.9556 15.7941L8.34111 21.5255C8.29535 21.599 8.23149 21.6589 8.15595 21.6991C8.08042 21.7393 7.99588 21.7584 7.91083 21.7545C7.82579 21.7506 7.74324 21.7239 7.67149 21.677C7.59973 21.6301 7.54131 21.5647 7.50209 21.4874L4.45765 15.4369C4.41883 15.3596 4.40055 15.2732 4.40461 15.1864C4.40867 15.0995 4.43494 15.0153 4.48079 14.9422C4.52665 14.869 4.59047 14.8094 4.66587 14.7695C4.74128 14.7295 4.82562 14.7105 4.91045 14.7144Z" fill="black"/>
<path d="M0.592772 22.0816L7.23569 22.3979C7.32073 22.4019 7.40326 22.4287 7.47498 22.4756C7.54669 22.5226 7.60506 22.5881 7.6442 22.6654C7.68335 22.7428 7.7019 22.8294 7.69799 22.9165C7.69407 23.0035 7.66783 23.088 7.6219 23.1614L4.03409 28.8873C3.9881 28.9607 3.92405 29.0204 3.84838 29.0603C3.77271 29.1003 3.68809 29.1192 3.60304 29.115C3.51798 29.1109 3.4355 29.0839 3.36388 29.0367C3.29226 28.9896 3.23404 28.9239 3.19507 28.8464L0.139967 22.8069C0.100502 22.7295 0.0816888 22.6428 0.0854267 22.5556C0.0891645 22.4683 0.115321 22.3836 0.161256 22.3101C0.20719 22.2365 0.271275 22.1766 0.347041 22.1365C0.422807 22.0964 0.50757 22.0775 0.592772 22.0816Z" fill="black"/>
<path d="M41.2839 0.753754L37.9571 6.64878C37.9147 6.7245 37.8925 6.81028 37.8926 6.89756C37.8927 6.98484 37.9152 7.07056 37.9578 7.14617C38.0003 7.22177 38.0616 7.28462 38.1353 7.32844C38.209 7.37226 38.2927 7.39551 38.378 7.39588H45.0369C45.1221 7.39551 45.2058 7.37226 45.2795 7.32844C45.3533 7.28462 45.4145 7.22177 45.4571 7.14617C45.4997 7.07056 45.5221 6.98484 45.5222 6.89756C45.5223 6.81028 45.5001 6.7245 45.4577 6.64878L42.1229 0.753754C42.0809 0.677762 42.0199 0.61455 41.9462 0.570571C41.8725 0.526591 41.7887 0.503418 41.7034 0.503418C41.6181 0.503418 41.5343 0.526591 41.4606 0.570571C41.3869 0.61455 41.3259 0.677762 41.2839 0.753754Z" fill="black"/>
<path d="M31.4475 0.753754L28.1207 6.64878C28.0783 6.7245 28.056 6.81028 28.0562 6.89756C28.0563 6.98484 28.0787 7.07056 28.1213 7.14617C28.1639 7.22177 28.2251 7.28462 28.2989 7.32844C28.3726 7.37226 28.4563 7.39551 28.5415 7.39588H35.2004C35.2857 7.39551 35.3694 7.37226 35.4431 7.32844C35.5168 7.28462 35.5781 7.22177 35.6206 7.14617C35.6632 7.07056 35.6857 6.98484 35.6858 6.89756C35.6859 6.81028 35.6637 6.7245 35.6213 6.64878L32.2865 0.753754C32.2445 0.677762 32.1835 0.61455 32.1098 0.570571C32.0361 0.526591 31.9523 0.503418 31.867 0.503418C31.7817 0.503418 31.6979 0.526591 31.6242 0.570571C31.5505 0.61455 31.4895 0.677762 31.4475 0.753754Z" fill="black"/>
<path d="M25.934 55.6387L24.2666 50.7062L25.934 45.7764H37.5178L39.1825 50.7062L37.5178 55.6387H25.934Z" fill="black" stroke="white" stroke-width="0.4" stroke-miterlimit="10"/>
<path d="M28.7254 49.1412L30.0918 46.1664C30.1064 46.1268 30.1118 46.0842 30.1075 46.0421C30.1032 46 30.0894 45.9595 30.0672 45.9237C30.045 45.888 30.0149 45.8581 29.9794 45.8363C29.9439 45.8145 29.904 45.8015 29.8627 45.7983H27.1299C27.0874 45.7982 27.0455 45.809 27.0083 45.83C26.971 45.8509 26.9396 45.8813 26.9169 45.9181C26.8943 45.9549 26.8811 45.997 26.8788 46.0405C26.8765 46.0839 26.8849 46.1273 26.9035 46.1664L28.2699 49.1412C28.2936 49.1813 28.3271 49.2144 28.367 49.2374C28.4068 49.2604 28.4519 49.2725 28.4976 49.2725C28.5434 49.2725 28.5884 49.2604 28.6283 49.2374C28.6682 49.2144 28.7016 49.1813 28.7254 49.1412Z" fill="white"/>
<path d="M32.8218 47.279L33.9352 45.8666C33.9403 45.8607 33.9436 45.8535 33.9448 45.8457C33.9461 45.838 33.9451 45.83 33.942 45.8228C33.9389 45.8156 33.9338 45.8095 33.9274 45.8052C33.921 45.8009 33.9135 45.7985 33.9059 45.7984H31.6765C31.6686 45.798 31.6607 45.7999 31.6539 45.804C31.6471 45.8081 31.6416 45.8142 31.6382 45.8215C31.6348 45.8288 31.6336 45.837 31.6347 45.845C31.6358 45.8531 31.6392 45.8605 31.6445 45.8666L32.7579 47.279C32.7619 47.2836 32.7668 47.2873 32.7723 47.2899C32.7778 47.2924 32.7838 47.2937 32.7898 47.2937C32.7959 47.2937 32.8019 47.2924 32.8074 47.2899C32.8129 47.2873 32.8178 47.2836 32.8218 47.279Z" fill="white"/>
<path d="M30.9573 47.279L32.0707 45.8666C32.0758 45.8607 32.0791 45.8535 32.0803 45.8457C32.0816 45.838 32.0805 45.83 32.0775 45.8228C32.0744 45.8156 32.0693 45.8095 32.0629 45.8052C32.0565 45.8009 32.049 45.7985 32.0414 45.7984H29.812C29.8041 45.798 29.7962 45.7999 29.7894 45.804C29.7826 45.8081 29.7771 45.8142 29.7737 45.8215C29.7703 45.8288 29.7691 45.837 29.7702 45.845C29.7713 45.8531 29.7747 45.8605 29.78 45.8666L30.8934 47.279C30.8974 47.2836 30.9023 47.2873 30.9078 47.2899C30.9133 47.2924 30.9193 47.2937 30.9253 47.2937C30.9314 47.2937 30.9374 47.2924 30.9429 47.2899C30.9484 47.2873 30.9533 47.2836 30.9573 47.279Z" fill="white"/>
<path d="M35.3843 49.1412L36.7507 46.1664C36.7653 46.1268 36.7707 46.0842 36.7664 46.0421C36.7622 46 36.7484 45.9595 36.7261 45.9237C36.7039 45.888 36.6738 45.8581 36.6384 45.8363C36.6029 45.8145 36.5629 45.8015 36.5216 45.7983H33.7888C33.7463 45.7982 33.7045 45.809 33.6672 45.83C33.6299 45.8509 33.5985 45.8813 33.5759 45.9181C33.5532 45.9549 33.5401 45.997 33.5377 46.0405C33.5354 46.0839 33.5439 46.1273 33.5624 46.1664L34.9288 49.1412C34.9526 49.1813 34.986 49.2144 35.0259 49.2374C35.0658 49.2604 35.1108 49.2725 35.1566 49.2725C35.2023 49.2725 35.2474 49.2604 35.2872 49.2374C35.3271 49.2144 35.3606 49.1813 35.3843 49.1412Z" fill="white"/>
<path d="M28.7254 52.2221L30.0918 55.1941C30.1064 55.2337 30.1118 55.2763 30.1075 55.3184C30.1032 55.3606 30.0894 55.4011 30.0672 55.4368C30.045 55.4726 30.0149 55.5025 29.9794 55.5242C29.9439 55.546 29.904 55.559 29.8627 55.5622H27.1299C27.0874 55.5624 27.0455 55.5515 27.0083 55.5306C26.971 55.5096 26.9396 55.4793 26.9169 55.4425C26.8943 55.4056 26.8811 55.3635 26.8788 55.3201C26.8765 55.2766 26.8849 55.2333 26.9035 55.1941L28.2699 52.2221C28.2898 52.1774 28.3219 52.1395 28.3623 52.1129C28.4027 52.0864 28.4496 52.0723 28.4976 52.0723C28.5456 52.0723 28.5926 52.0864 28.633 52.1129C28.6734 52.1395 28.7054 52.1774 28.7254 52.2221Z" fill="white"/>
<path d="M32.8218 54.0818L33.9352 55.4915C33.9403 55.4973 33.9436 55.5046 33.9448 55.5123C33.9461 55.5201 33.9451 55.528 33.942 55.5352C33.9389 55.5424 33.9338 55.5485 33.9274 55.5529C33.921 55.5572 33.9135 55.5595 33.9059 55.5596H31.6765C31.6686 55.5601 31.6607 55.5581 31.6539 55.554C31.6471 55.5499 31.6416 55.5438 31.6382 55.5365C31.6348 55.5292 31.6336 55.521 31.6347 55.513C31.6358 55.505 31.6392 55.4975 31.6445 55.4915L32.7579 54.0818C32.7616 54.0767 32.7664 54.0726 32.772 54.0697C32.7775 54.0669 32.7836 54.0654 32.7898 54.0654C32.796 54.0654 32.8022 54.0669 32.8077 54.0697C32.8133 54.0726 32.8181 54.0767 32.8218 54.0818Z" fill="white"/>
<path d="M30.9573 54.0818L32.0707 55.4915C32.0758 55.4973 32.0791 55.5046 32.0803 55.5123C32.0816 55.5201 32.0805 55.528 32.0775 55.5352C32.0744 55.5424 32.0693 55.5485 32.0629 55.5529C32.0565 55.5572 32.049 55.5595 32.0414 55.5596H29.812C29.8041 55.5601 29.7962 55.5581 29.7894 55.554C29.7826 55.5499 29.7771 55.5438 29.7737 55.5365C29.7703 55.5292 29.7691 55.521 29.7702 55.513C29.7713 55.505 29.7747 55.4975 29.78 55.4915L30.8934 54.0818C30.8971 54.0767 30.9019 54.0726 30.9075 54.0697C30.913 54.0669 30.9191 54.0654 30.9253 54.0654C30.9315 54.0654 30.9377 54.0669 30.9432 54.0697C30.9488 54.0726 30.9536 54.0767 30.9573 54.0818Z" fill="white"/>
<path d="M35.3843 52.2221L36.7507 55.1941C36.7653 55.2337 36.7707 55.2763 36.7664 55.3184C36.7622 55.3606 36.7484 55.4011 36.7261 55.4368C36.7039 55.4726 36.6738 55.5025 36.6384 55.5242C36.6029 55.546 36.5629 55.559 36.5216 55.5622H33.7888C33.7463 55.5624 33.7045 55.5515 33.6672 55.5306C33.6299 55.5096 33.5985 55.4793 33.5759 55.4425C33.5532 55.4056 33.5401 55.3635 33.5377 55.3201C33.5354 55.2766 33.5439 55.2333 33.5624 55.1941L34.9288 52.2221C34.9488 52.1774 34.9808 52.1395 35.0212 52.1129C35.0616 52.0864 35.1086 52.0723 35.1566 52.0723C35.2046 52.0723 35.2515 52.0864 35.2919 52.1129C35.3323 52.1395 35.3644 52.1774 35.3843 52.2221Z" fill="white"/>
</g>
<defs>
<clipPath id="clip0_240_2">
<rect width="64" height="64" fill="white" transform="translate(0.0839844 0.416016)"/>
</clipPath>
</defs>
</svg>
